<svg xmlns="http://www.w3.org/2000/svg" height="1024" preserveAspectRatio="none" style="display: block;" version="1.1" viewBox="0 0 2048 2048" width="1024">
<path d="M 1008.09 180.338 C 1110.41 169.447 1188.65 245.652 1198.26 344.98 C 1222.07 344.889 1240.36 344.618 1258.86 362.923 C 1269.17 373.139 1275.93 386.382 1278.18 400.717 C 1279.77 410.608 1279.25 431.799 1279.24 442.35 L 1279.2 510.536 L 1279.22 764.503 C 1315.26 766.486 1361.81 760.935 1397 767.774 C 1405.68 769.462 1417.99 778.058 1424.45 784.48 C 1436.94 796.746 1443.99 813.511 1444.01 831.018 C 1443.96 860.027 1422.52 889.188 1393.25 894.254 C 1379.06 896.709 1361.73 895.941 1347.2 895.944 L 1282.67 895.921 L 1042.75 895.86 L 777.384 896.08 L 705.946 896.099 C 677.278 896.099 650.882 900.055 628.533 878.667 C 615.403 866.309 607.93 849.096 607.865 831.065 C 607.69 813.34 613.889 797.319 626.505 784.769 C 634.527 776.789 644.087 770.816 655.006 767.723 C 676.358 761.673 745.504 764.775 770.752 764.831 C 771.002 757.858 770.798 750.891 770.839 743.917 C 771.479 634.971 770.239 526.051 770.137 417.111 C 769.704 395.888 775.714 377.614 791.196 362.725 C 809.767 344.867 827.922 344.612 852.035 345.014 C 857.887 298.123 870.752 261.287 905.378 227.778 C 935.596 198.534 967.071 185.555 1008.09 180.338 z M 895.736 469.071 C 894.248 503.879 895.543 548.844 895.617 584.157 L 895.419 764.492 C 960.414 766.396 1033.17 765.031 1098.63 764.825 C 1117.06 764.61 1135.5 764.521 1153.93 764.56 C 1155.66 737.92 1154.83 699.508 1154.87 672.208 L 1154 469.065 C 1087.9 468.325 1021.79 468.133 955.689 468.489 C 937.395 468.564 913.593 467.968 895.736 469.071 z M 970.92 344.683 C 988.613 345.325 1007.39 344.975 1025.18 344.922 C 1042.6 344.938 1061.46 345.304 1078.76 344.702 C 1071.62 318.223 1053.9 303.038 1026.13 301.415 C 996.587 303.422 979.772 316.8 970.92 344.683 z" fill="rgb(63,81,181)" transform="translate(0,0)"></path>
<path d="M 586.343 1588.36 C 601.342 1587.24 625.538 1587.89 641.239 1587.88 L 743.227 1587.74 L 1081.89 1587.76 L 1347 1587.9 L 1425.8 1587.96 C 1436.58 1587.96 1455.78 1587.38 1465.81 1588.38 C 1477.05 1589.6 1487.75 1593.86 1496.76 1600.69 C 1546.05 1637.59 1525.46 1711.98 1465.25 1720.01 C 1449.29 1720.82 1427.87 1720.17 1411.42 1720.14 L 1315.34 1720.22 L 984.176 1720.11 L 726.904 1720.47 L 635.218 1720.38 C 618.714 1720.31 602.369 1720.3 585.869 1719.67 C 554.613 1718.48 529.586 1693.95 525.35 1663.18 C 523.016 1645.95 527.64 1628.49 538.202 1614.66 C 550.834 1598.14 566.205 1590.93 586.343 1588.36 z" fill="rgb(63,81,181)" transform="translate(0,0)"></path>
<path d="M 686.326 1257.5 L 1150.62 1257.68 L 1305.08 1257.49 C 1331.11 1257.49 1359.25 1257.01 1385.08 1258.6 C 1398.72 1260.78 1411.88 1265.83 1421.98 1275.49 C 1455.84 1307.87 1447.26 1368.21 1402.12 1385.63 C 1388.67 1390.83 1379.07 1391.03 1364.75 1391.03 L 899.924 1390.99 L 743.584 1391.09 C 725.73 1391.05 682.25 1391.98 665.863 1389.97 C 651.385 1388.26 637.853 1381.89 627.297 1371.84 C 602.066 1347.89 600.785 1304.75 625.016 1279.07 C 642.399 1260.65 662.048 1258.03 686.326 1257.5 z" fill="rgb(63,81,181)" transform="translate(0,0)"></path>
<path d="M 1329.52 1423.5 C 1362.34 1423.36 1397.45 1417.02 1424.11 1442.65 C 1462.56 1479.6 1441.75 1547.18 1388.65 1554.83 C 1368.97 1557.67 1340.39 1556 1318.92 1556 L 1185.51 1555.97 L 721.5 1555.99 C 690.604 1556.09 652.568 1561.12 629.24 1539.09 C 615.715 1526.14 607.862 1508.37 607.396 1489.65 C 606.975 1472.07 613.748 1455.08 626.148 1442.62 C 644.845 1423.84 665.712 1423.52 690.533 1423.86 C 704.605 1424.05 719.119 1423.76 733.227 1423.73 L 878.406 1423.87 L 1329.52 1423.5 z" fill="rgb(63,81,181)" transform="translate(0,0)"></path>
<path d="M 668.365 928.423 C 683.341 927.518 701.826 928.03 717.155 928.035 L 800.951 928.09 L 1062.83 928.25 L 1275.13 928.254 L 1341.39 928.425 C 1358.4 928.504 1387.03 927.248 1402.45 933.705 C 1424.78 943.05 1441.73 967.093 1443.27 991.441 C 1444.36 1009.01 1438.32 1026.28 1426.51 1039.33 C 1414.88 1052.43 1399.37 1059.12 1382.05 1060.2 C 1324.67 1061.92 1262.22 1060.75 1204.68 1060.61 L 949.986 1060.74 L 767.425 1060.74 C 741.71 1060.74 715.989 1060.82 690.274 1060.68 C 670.061 1060.56 653.143 1060.97 635.801 1049.28 C 621.594 1039.66 611.842 1024.74 608.73 1007.86 C 605.437 989.797 609.529 971.168 620.091 956.148 C 632.258 939.062 648.236 931.664 668.365 928.423 z" fill="rgb(63,81,181)" transform="translate(0,0)"></path>
<path d="M 671.419 1093.44 C 689.115 1092.79 709.13 1093.33 726.998 1093.37 L 823.201 1093.48 L 1103.17 1093.47 L 1284.31 1093.35 C 1315.93 1093.29 1348.63 1092.78 1380.25 1093.8 C 1392.44 1094.2 1405.75 1098.72 1415.82 1105.74 C 1430.15 1115.78 1439.82 1131.18 1442.66 1148.44 C 1449.17 1187.43 1423.61 1219.05 1385.24 1224.92 C 1337.48 1227.13 1279 1225.35 1230.09 1225.25 L 946.023 1225.03 L 766.098 1225.65 C 732.542 1225.86 697.336 1226.6 663.801 1224.77 C 653.878 1224.23 639.016 1217.01 631.317 1210.72 C 617.854 1199.74 609.349 1183.83 607.704 1166.54 C 603.801 1125.3 631.358 1097.13 671.419 1093.44 z" fill="rgb(63,81,181)" transform="translate(0,0)"></path>
<metadata><recraft-signature>{"signed_by": "recraft", "signature_b64": "aFim0sk3qUr1dpzFnX4UJpsXDxeVRkOcn0JDrCRKj0vpGQGmJBlYHkoG8gF2nYSSg/D65r6a3O5LNf5+yE4+CQ==", "signing_algo": "Ed25519", "generation_timestamp": 1784194286, "identifier": "4be5133e-bc2e-4cec-a72d-000ba0056cc3"}</recraft-signature></metadata></svg>