<svg xmlns="http://www.w3.org/2000/svg" height="1024" preserveAspectRatio="none" style="display: block;" version="1.1" viewBox="0 0 2048 2048" width="1024">
<path d="M 1014.35 758.3 C 1017.21 758.022 1020.08 757.891 1022.96 757.909 C 1038.07 757.866 1063.01 763.366 1073.84 773.695 C 1102.15 800.682 1130.68 830.865 1158.84 858.144 C 1263.42 960.86 1367.24 1064.34 1470.3 1168.58 C 1483.24 1181.52 1493.6 1190.85 1499.23 1208.81 C 1505.64 1229.22 1503.89 1253.44 1503.84 1274.94 L 1503.68 1331.61 L 1503.69 1457.89 C 1503.69 1519.91 1492.2 1567.85 1446.36 1613.34 C 1422.16 1637.79 1392 1655.51 1358.86 1664.73 C 1318.54 1675.65 1256.85 1672.07 1212.83 1672.08 L 1037.25 1671.93 L 822.494 1672.03 C 754.332 1672.03 693.433 1680.91 633.187 1639.53 C 588.687 1609.44 558.181 1562.7 548.555 1509.85 C 543.903 1483.89 545.023 1455.12 545.008 1428.61 L 544.944 1328.84 L 544.703 1264.85 C 544.607 1241.59 542.846 1208.67 558.983 1189.37 C 576.252 1168.72 598.347 1148.83 617.735 1129.75 L 734.812 1013.85 L 888.088 862.128 L 937.851 812.537 C 961.671 788.397 979.173 764.065 1014.35 758.3 z" fill="rgb(63,81,181)" transform="translate(0,0)"></path>
<path d="M 1014.73 379.36 C 1023.87 378.512 1033.07 378.584 1042.2 379.575 C 1066.47 382.315 1089.49 391.756 1108.7 406.841 C 1125.21 419.896 1145.75 441.749 1160.99 457.005 L 1229.42 524.965 L 1427.16 722.473 L 1577.24 871.836 L 1619.04 913.427 C 1626.66 920.975 1638.32 931.915 1644.64 939.954 C 1663.87 964.811 1672.48 996.265 1668.6 1027.45 C 1659.68 1101.79 1575.59 1158.55 1504.32 1129.48 C 1465.24 1113.54 1433.46 1069.05 1403.27 1039.05 C 1349.87 985.971 1293.87 933.62 1241.56 879.54 L 1151 787.32 C 1113.62 749.048 1099.24 721.656 1040.25 714.071 C 1011.65 711.513 985.05 716.622 960.233 731.483 C 942.644 742.017 932.399 755.176 918.371 769.796 C 909.349 779.069 900.199 788.216 890.923 797.235 L 672.463 1013.22 C 651.022 1034.74 629.452 1056.13 607.753 1077.39 C 577.872 1106.76 560.985 1127.68 516.412 1133.96 C 450.836 1143.19 388.511 1094.06 381.275 1027.5 C 377.67 993.767 387.695 959.988 409.118 933.678 C 419.647 920.847 447.084 895.595 460.31 882.54 L 570.556 773.478 L 798.945 546.437 L 871.725 474.169 C 892.999 452.833 919.673 425.061 943.188 407.344 C 963.937 391.484 988.732 381.786 1014.73 379.36 z" fill="rgb(63,81,181)" transform="translate(0,0)"></path>
<metadata><recraft-signature>{"signed_by": "recraft", "signature_b64": "OWCTLI64EJYgk1JdZYFRS9AloaMZBSZ+wUSpkJjhUnWbK9ezG0iEEijvUUY+tSeOfc6OwQRHVGgiqZphZIO4Dw==", "signing_algo": "Ed25519", "generation_timestamp": 1784194288, "identifier": "18d48f02-68b8-48b2-9bb0-c44a9f2f7ce1"}</recraft-signature></metadata></svg>