<svg xmlns="http://www.w3.org/2000/svg" height="1024" preserveAspectRatio="none" style="display: block;" version="1.1" viewBox="0 0 2048 2048" width="1024">
<path d="M 1171.55 248.36 C 1185.36 247.332 1207 248.02 1221.49 248.017 L 1315.59 248.029 L 1391.6 247.956 C 1406.25 247.946 1428.09 247.244 1441.72 249.651 C 1456.96 252.237 1471.21 258.881 1482.99 268.885 C 1519.35 299.403 1510.99 329.217 1514.52 370.018 C 1544.43 368.972 1574.63 369.62 1604.57 369.468 C 1629.08 369.343 1649.77 374.945 1668.74 390.894 C 1687.74 406.672 1699.61 429.407 1701.7 454.009 C 1703.86 478.119 1696.2 502.08 1680.46 520.466 C 1658.41 546.431 1634.18 552.229 1602.1 554.92 C 1600.84 627.317 1602.08 702.235 1601.95 774.912 C 1601.06 870.242 1601.01 965.577 1601.8 1060.91 C 1650.02 1060.86 1691.28 1054.53 1728.71 1092.03 C 1753.75 1117.11 1758.96 1141.02 1759.05 1175.18 L 1759.16 1512.45 L 1759.25 1604.3 C 1759.3 1650.58 1763.97 1685.92 1728.37 1721.25 C 1712.48 1737 1691.99 1747.31 1669.87 1750.67 C 1653.95 1753.06 1611.27 1752.09 1592.69 1752.15 L 1432.42 1752.22 L 863.607 1752.28 L 500.174 1752.17 C 470.934 1752.07 441.694 1752.13 412.455 1752.36 C 371.259 1752.62 342.61 1757.3 308.608 1729.47 C 268.324 1696.51 263.048 1633.67 296.971 1594.47 C 318.167 1569.97 340.587 1561.44 372.026 1559.48 L 371.933 555.234 C 345.014 554.675 320.962 547.257 301.183 528.664 C 264.804 494.468 266.396 432.809 301.28 398.225 C 315.139 384.486 336.59 373.334 356.134 371.353 C 381.446 368.788 408.414 369.6 433.895 369.565 L 573.576 369.569 L 1083.6 369.501 C 1083.49 335.353 1081.32 310.82 1104.33 282.523 C 1122.43 260.277 1143.56 251.336 1171.55 248.36 z M 787.25 1559.69 L 851.834 1559.79 L 851.534 1313.42 L 851.388 1249.34 C 851.361 1236.36 851.894 1216.39 849.648 1204.2 C 846.589 1188.37 838.871 1173.81 827.482 1162.39 C 800.484 1135.35 758.647 1140.97 723.4 1140.94 L 617.474 1140.93 C 613.835 1140.95 608.604 1141.02 605.008 1141.34 C 570.876 1147.28 542.768 1169.86 538.894 1206 C 537.284 1221.02 537.7 1236.48 537.567 1251.6 L 537.235 1333.78 C 537.131 1386.49 537.323 1439.19 537.81 1491.9 C 537.948 1514.39 537.314 1538.08 537.901 1560.41 L 787.25 1559.69 z M 1140.82 923.809 C 1174.24 916.353 1202.61 894.004 1206.25 857.463 C 1209.11 828.836 1207.24 795.701 1207.15 766.625 L 1207.07 705.302 C 1207 667.614 1209.91 631.217 1173.52 608.505 C 1150.76 594.299 1116.69 595.449 1090.62 597.336 C 1058.44 601.538 1030.65 620.298 1025.39 654.206 C 1023.33 667.533 1024 682.265 1023.99 695.774 L 1023.9 755.168 L 1023.65 821.26 C 1023.61 857.882 1022.45 884.044 1054.21 908.889 C 1077.47 927.08 1112.89 927.137 1140.82 923.809 z M 1376.56 924.512 C 1399.25 923.176 1419.69 916.94 1435.15 899.291 C 1444.25 889.067 1450.5 876.634 1453.28 863.235 C 1455.83 850.639 1455.16 832.191 1455.15 818.88 L 1455.17 763.663 C 1455.2 735.424 1456.94 690.325 1454.97 664.134 C 1453.52 644.79 1444.3 626.858 1429.41 614.428 C 1406.89 595.521 1381.58 596.975 1353.58 597.466 C 1328.16 598.13 1311.23 601.304 1292.25 620.351 C 1284.95 627.675 1276.4 643.394 1275.04 653.546 C 1271.83 677.334 1273.24 706.703 1273.13 730.998 C 1272.95 770.746 1273.19 810.104 1273.66 849.823 C 1273.95 874.025 1280.97 888.547 1298.44 905.239 C 1319.43 925.289 1346.98 925.962 1374.66 924.613 L 1376.56 924.512 z M 1145.21 1460.45 C 1176.72 1456.8 1202.16 1432.48 1206.43 1401.01 C 1208.18 1388.06 1207.64 1375.27 1207.52 1362.25 C 1207.27 1343.6 1207.13 1324.94 1207.1 1306.29 L 1207.49 1245.87 C 1207.6 1233.25 1208.19 1216.61 1206.5 1204.47 C 1203.88 1185.69 1193.94 1168.7 1178.85 1157.22 C 1154.17 1138.7 1116.82 1138.83 1087.12 1141.28 C 1054.92 1146.56 1029.45 1167.49 1024.78 1201.25 C 1023.05 1213.69 1023.43 1227.99 1023.36 1240.62 L 1023.51 1310.77 L 1023.61 1365.05 C 1023.69 1398.21 1023.27 1427.08 1053.58 1448.66 C 1072.94 1462.45 1093.88 1461.82 1116.61 1461.55 C 1124.55 1461.43 1137.45 1461.51 1145.21 1460.45 z M 1391.62 1461.26 C 1411.77 1457.94 1428.23 1449.89 1440.5 1433.03 C 1447.68 1423 1452.36 1411.4 1454.13 1399.2 C 1455.78 1388.26 1455.27 1372.64 1455.25 1361.22 L 1455.18 1301.6 L 1455.58 1242.23 C 1455.83 1207.34 1457.24 1176.78 1425.08 1153.92 C 1405.87 1140.26 1386.05 1140.45 1363.48 1140.81 C 1355.95 1140.94 1345.98 1140.74 1338.6 1141.4 C 1317.65 1144.2 1302.03 1151.98 1288.08 1168.56 C 1283.3 1174.25 1275.21 1191.1 1274.53 1198.37 C 1271.95 1225.79 1272.91 1257.9 1272.91 1285.5 L 1272.94 1353.59 C 1272.96 1369.95 1272.48 1388.18 1274.59 1404.24 C 1276.8 1421.29 1285.75 1436.74 1299.43 1447.15 C 1322.74 1465.09 1363.09 1463.44 1391.62 1461.26 z" fill="rgb(63,81,181)" transform="translate(0,0)"></path>
<metadata><recraft-signature>{"signed_by": "recraft", "signature_b64": "llvojhCggR2V2fL7x6osVdgMSdmgxivEztNUqAAS+AHY15vs2rzW9wyFjgtpl4mPlov1p8wEqsEXKDIDafEOAA==", "signing_algo": "Ed25519", "generation_timestamp": 1784194287, "identifier": "20000656-e59a-4080-80aa-c019d12aa446"}</recraft-signature></metadata></svg>